<?xml version="1.0" encoding="UTF-8"?>
<svg xmlns="http://www.w3.org/2000/svg" version="1.1" viewBox="0 0 512 512">
  <defs>
    <style>
      .cls-1 {
        fill: #fff;
      }

      .cls-1, .cls-2 {
        stroke-miterlimit: 10;
      }

      .cls-1, .cls-2, .cls-3 {
        stroke: #231f20;
        stroke-width: 5px;
      }

      .cls-4 {
        fill: #000;
      }

      .cls-4, .cls-5, .cls-6, .cls-7 {
        stroke-width: 0px;
      }

      .cls-5 {
        fill: #c4a416;
      }

      .cls-2, .cls-3 {
        fill: none;
        stroke-linecap: round;
      }

      .cls-6 {
        fill: #fed41d;
      }

      .cls-7 {
        fill: #231f20;
      }

      .cls-3 {
        stroke-linejoin: round;
      }

      .cls-8 {
        display: none;
      }
    </style>
  </defs>
  <g id="Bart" class="cls-8">
    <g>
      <g>
        <g>
          <path class="cls-6" d="M129.54,383.11c-10.09,0-19.95-9.66-24.53-24.04-2.93-9.19-2.22-18.41,1.84-24.06,2.53-3.52,6.19-5.42,10.59-5.48h.23c10.79,0,24.7,11.62,29.18,24.39,2.13,6.06,1.67,12.78-1.24,18.45-2.58,5.02-6.81,8.7-11.62,10.1-1.46.42-2.95.64-4.44.64Z"/>
          <path class="cls-7" d="M117.67,332.03c9.86,0,22.65,10.83,26.82,22.72,1.9,5.41,1.5,11.42-1.1,16.47-2.27,4.41-5.95,7.63-10.1,8.84-1.23.36-2.49.54-3.74.54-8.86,0-17.97-9.17-22.15-22.3-2.69-8.45-2.12-16.82,1.49-21.84,2.08-2.89,4.97-4.39,8.6-4.44h.19M117.66,327.03c-.09,0-.18,0-.26,0-13.84.21-20.19,15.81-14.77,32.8,4.81,15.11,15.54,25.78,26.92,25.78,1.7,0,3.42-.24,5.14-.74,11.64-3.39,19.38-17.92,14.52-31.77-4.74-13.5-19.3-26.07-31.54-26.07h0Z"/>
        </g>
        <path class="cls-2" d="M118.42,345.96s12.96,0,14.04,12.71c.81,9.5-2.74,12.7-2.74,12.7"/>
      </g>
      <g>
        <g>
          <path class="cls-6" d="M382.46,383.11c-1.49,0-2.98-.22-4.44-.64-4.81-1.4-9.04-5.08-11.62-10.1-2.91-5.67-3.36-12.39-1.24-18.45,4.48-12.77,18.39-24.39,29.18-24.39h.23c4.4.07,8.06,1.96,10.59,5.48,4.06,5.65,4.77,14.87,1.84,24.06-4.58,14.38-14.44,24.04-24.53,24.04h0Z"/>
          <path class="cls-7" d="M394.34,332.03h.19c3.62.06,6.52,1.55,8.6,4.44,3.61,5.02,4.18,13.39,1.49,21.84-4.18,13.13-13.29,22.3-22.15,22.3-1.25,0-2.51-.18-3.74-.54-4.15-1.21-7.83-4.43-10.1-8.84-2.6-5.06-3-11.06-1.1-16.47,4.17-11.89,16.96-22.72,26.82-22.72M394.34,327.03c-12.24,0-26.8,12.56-31.54,26.07-4.86,13.85,2.88,28.38,14.52,31.77,1.72.5,3.44.74,5.14.74,11.38,0,22.1-10.67,26.92-25.78,5.41-16.98-.93-32.59-14.77-32.8-.09,0-.18,0-.26,0h0Z"/>
        </g>
        <path class="cls-2" d="M393.58,345.96s-12.96,0-14.04,12.71c-.81,9.5,2.74,12.7,2.74,12.7"/>
      </g>
    </g>
    <g>
      <path class="cls-6" d="M256,508.82c-33.59,0-56.15-5.95-56.15-11.5,0-33.85-8.76-39.28-24.66-49.13-3.51-2.17-7.49-4.64-11.81-7.7-22.26-15.77-24.69-38.11-24.71-38.33l-12.32-145-.53-.61c-5.8-6.7-9.13-16.21-9.13-26.07,0-7.38,1.8-14.48,5.22-20.51l.38-.68-11.13-126.46-9.5-52.32c2.8,3.62,6.54,10.75,8.63,14.74,6.12,11.68,9.81,18.3,14.44,18.3h0c.43,0,.85-.06,1.25-.18,5.36-1.53,4.59-10.84,3.52-23.72-.51-6.11-1.56-18.77.37-20.32,2.43.42,7.6,12.04,10.1,17.65,5.45,12.26,8.77,19.19,13.52,19.19h0c.33,0,.66-.04.98-.11,5.44-1.19,5.25-10.52,4.98-23.44-.12-6.12-.38-18.8,1.63-20.25,2.38.58,6.81,12.5,8.94,18.25,4.74,12.78,7.67,20.02,12.54,20.02h0c.23,0,.47-.02.7-.06,5.49-.84,5.88-10.17,6.42-23.08.26-6.1.78-18.74,2.87-20.1,2.36.8,6,12.92,7.76,18.77,3.99,13.27,6.5,20.78,11.52,20.78h0c.14,0,.29,0,.43-.02,5.53-.49,6.5-9.78,7.85-22.63.64-6.07,1.95-18.64,4.11-19.88,2.3.96,5.17,13.27,6.56,19.22,2.91,12.46,5.01,21.47,10.47,21.47,0,0,.16,0,.16,0,5.55-.15,7.1-9.35,9.24-22.09,1.01-6.02,3.11-18.48,5.35-19.59,2.23,1.11,4.33,13.57,5.34,19.59,2.14,12.74,3.69,21.95,9.26,22.09h.14c5.46,0,7.56-9.01,10.47-21.47,1.39-5.95,4.26-18.25,6.56-19.22,2.16,1.24,3.48,13.81,4.11,19.88,1.34,12.85,2.32,22.14,7.87,22.63.12.01.26.02.41.02h0c5.03,0,7.53-7.51,11.52-20.78,1.76-5.85,5.41-17.97,7.76-18.77,2.08,1.36,2.61,14,2.87,20.1.54,12.91.93,22.24,6.45,23.08.21.03.45.05.68.05,4.88,0,7.8-7.23,12.54-20.02,2.13-5.74,6.54-17.62,8.95-18.25,2.01,1.46,1.75,14.13,1.62,20.24-.26,12.92-.46,22.26,5.01,23.45.3.07.63.1.96.1,4.74,0,8.06-6.94,13.51-19.19,2.49-5.6,7.66-17.21,10.1-17.65,1.93,1.55.88,14.21.37,20.32-1.07,12.88-1.84,22.19,3.54,23.73.38.11.81.17,1.23.17,4.63,0,8.32-6.61,14.44-18.3,2.09-3.98,5.81-11.09,8.62-14.72l-9.5,52.29-11.13,126.46.38.68c3.41,6.03,5.22,13.13,5.22,20.51,0,9.86-3.33,19.37-9.13,26.07l-.53.61-12.32,145.02c-.02.2-2.45,22.54-24.71,38.31-4.32,3.06-8.3,5.53-11.81,7.7-15.9,9.85-24.66,15.28-24.66,49.13,0,5.55-22.56,11.5-56.15,11.5Z"/>
      <path class="cls-7" d="M256,9.14c1.17,4.1,2.22,10.36,2.88,14.28,2.34,13.9,4.03,23.94,11.63,24.18.08,0,.16,0,.24,0,7.44,0,9.73-9.82,12.9-23.4.9-3.87,2.35-10.05,3.77-14.08.91,4.17,1.57,10.48,1.98,14.43,1.47,14.04,2.53,24.18,10.08,24.86.22.02.45.03.68.03,7.13,0,9.98-9.46,13.92-22.56,1.15-3.81,2.98-9.91,4.66-13.84.65,4.22.92,10.57,1.08,14.55.59,14.11,1.02,24.3,8.52,25.44.36.06.74.09,1.11.09,6.85,0,10.22-9.08,14.89-21.65,1.39-3.75,3.62-9.75,5.54-13.56.39,4.25.26,10.64.18,14.63-.29,14.12-.5,24.31,6.93,25.93.5.11,1.02.17,1.53.17,6.6,0,10.26-8.22,15.8-20.67,1.63-3.67,4.25-9.56,6.43-13.24.14,4.26-.4,10.68-.73,14.68-1.17,14.07-2.01,24.24,5.3,26.32.64.19,1.3.28,1.96.28,6.08,0,9.89-6.73,16.66-19.64.45-.85.95-1.82,1.5-2.86l-7.03,38.72-.04.23-.02.23-11.05,125.57-.14,1.55.76,1.35c3.2,5.66,4.89,12.33,4.89,19.28,0,9.27-3.11,18.18-8.52,24.43l-1.06,1.23-.14,1.62-12.25,144.17c-.12,1.16-2.58,21.58-23.67,36.52-4.26,3.02-8.2,5.46-11.68,7.62-17.43,10.8-25.82,17.5-25.85,51.12-.29.44-2.8,3.57-16.49,6.17-10.06,1.91-23.26,2.97-37.17,2.97s-27.11-1.05-37.17-2.97c-13.69-2.6-16.2-5.74-16.49-6.17-.02-33.63-8.41-40.32-25.85-51.12-3.48-2.16-7.42-4.6-11.68-7.62-21.1-14.94-23.55-35.38-23.67-36.52l-12.25-144.17-.14-1.62-1.06-1.23c-5.42-6.26-8.52-15.16-8.52-24.43,0-6.95,1.69-13.62,4.89-19.28l.76-1.35-.14-1.55-11.05-125.57-.02-.23-.04-.23-7.03-38.71c.55,1.04,1.06,2.01,1.5,2.86,6.76,12.9,10.57,19.64,16.66,19.64.67,0,1.33-.1,1.92-.27,7.36-2.1,6.52-12.27,5.35-26.34-.33-4-.86-10.41-.73-14.67,2.17,3.68,4.79,9.56,6.42,13.23,5.54,12.45,9.2,20.67,15.8,20.67.52,0,1.03-.06,1.49-.16,7.47-1.63,7.26-11.83,6.97-25.94-.08-3.99-.21-10.38.18-14.63,1.93,3.81,4.15,9.81,5.54,13.56,4.66,12.57,8.03,21.65,14.89,21.65.37,0,.74-.03,1.06-.08,7.55-1.15,7.98-11.35,8.57-25.45.17-3.98.43-10.33,1.08-14.55,1.68,3.93,3.51,10.02,4.66,13.83,3.94,13.1,6.79,22.56,13.92,22.56.22,0,.45-.01.63-.03,7.6-.68,8.66-10.82,10.13-24.86.41-3.95,1.07-10.26,1.98-14.43,1.42,4.02,2.87,10.2,3.77,14.08,3.17,13.59,5.47,23.4,12.91,23.4.08,0,.15,0,.23,0,7.6-.23,9.3-10.28,11.64-24.18.66-3.92,1.71-10.17,2.88-14.28M256,.89c-8.09.04-7.44,41.51-14.68,41.7-.02,0-.05,0-.07,0-7.14,0-9.12-40.7-17.06-40.71-.05,0-.09,0-.14,0-8.08.54-4.83,41.9-12.05,42.54-.06,0-.12,0-.19,0-7.02,0-11.52-39.56-19.32-39.57-.09,0-.19,0-.28.02-8.03,1.05-2.21,42.12-9.38,43.21-.1.02-.2.02-.3.02-6.93,0-13.83-38.28-21.53-38.28-.14,0-.28.01-.43.04-7.97,1.56.42,42.18-6.69,43.73-.14.03-.28.05-.42.05-6.88,0-16.03-36.85-23.67-36.85-.19,0-.38.02-.57.07-7.89,2.06,3.05,42.07-3.98,44.07-.18.05-.36.08-.55.08-6.86,0-18.12-35.27-25.72-35.27-.25,0-.49.04-.73.11l10.4,57.28,11.05,125.57c-3.48,6.15-5.54,13.64-5.54,21.74,0,10.96,3.76,20.8,9.74,27.71l12.25,144.22h0s2.21,23.45,25.76,40.14c23.55,16.68,35.42,14.91,35.42,54.79,0,9.33,29.33,14,58.65,14s58.65-4.67,58.65-14c0-39.88,11.87-38.11,35.42-54.79,23.55-16.68,25.76-40.14,25.76-40.14l12.25-144.22c5.98-6.91,9.74-16.75,9.74-27.71,0-8.1-2.06-15.59-5.54-21.74l11.05-125.57,10.4-57.28c-.24-.08-.48-.11-.73-.11-7.6,0-18.86,35.27-25.72,35.27-.19,0-.37-.03-.55-.08-7.02-2,3.91-42.01-3.98-44.07-.19-.05-.38-.07-.57-.07-7.64,0-16.79,36.85-23.67,36.85-.14,0-.28-.02-.42-.05-7.11-1.55,1.28-42.17-6.69-43.73-.14-.03-.28-.04-.43-.04-7.7,0-14.6,38.28-21.53,38.28-.1,0-.2,0-.3-.02-7.17-1.1-1.34-42.16-9.38-43.21-.09-.01-.19-.02-.28-.02-7.8,0-12.31,39.57-19.32,39.57-.06,0-.12,0-.19,0-7.21-.64-3.97-42-12.05-42.54-.05,0-.09,0-.14,0-7.94,0-9.92,40.71-17.06,40.71-.02,0-.05,0-.07,0-7.23-.19-6.59-41.66-14.68-41.7h0Z"/>
    </g>
    <g>
      <g>
        <circle class="cls-1" cx="181.9" cy="281.35" r="60.34"/>
        <circle class="cls-4" cx="173.78" cy="282.43" r="11.91"/>
      </g>
      <g>
        <circle class="cls-1" cx="330.1" cy="281.35" r="60.34"/>
        <circle class="cls-4" cx="338.22" cy="282.43" r="11.91"/>
      </g>
    </g>
    <g>
      <path class="cls-6" d="M271.23,268.06c-1.07,3.76-1.68,13.18-.96,20.87.39,4.15,2.57,7.85,5.85,10.41,7.26,5.67,11.91,14.34,11.91,24.06,0,17.08-14.34,30.92-32.02,30.92s-32.02-13.84-32.02-30.92c0-11.58,6.6-21.68,16.36-26.98,5.45-4.83,30.88-28.36,30.88-28.36Z"/>
      <path class="cls-5" d="M288.02,323.4c0,17.08-14.34,30.92-32.02,30.92s-32.02-13.84-32.02-30.92c0,29.08,64.04,29.08,64.04,0Z"/>
      <path class="cls-2" d="M271.23,268.06c-1.07,3.76-1.68,13.18-.96,20.87.39,4.15,2.57,7.85,5.85,10.41,7.26,5.67,11.91,14.34,11.91,24.06,0,17.08-14.34,30.92-32.02,30.92s-32.02-13.84-32.02-30.92c0-11.58,6.6-21.68,16.36-26.98,1.28-4.04,1.97-13.01,1.79-18.7"/>
    </g>
    <g>
      <path class="cls-3" d="M170.77,420.78c59.34,20.75,116.16,20.75,170.46,0"/>
      <line class="cls-3" x1="174.19" y1="413.34" x2="167.89" y2="427.06"/>
      <line class="cls-3" x1="337.81" y1="413.34" x2="344.11" y2="427.06"/>
    </g>
  </g>
  <g id="Bart_copy" data-name="Bart copy">
    <g>
      <g>
        <g>
          <path class="cls-6" d="M129.54,383.11c-10.09,0-19.95-9.66-24.53-24.04-2.93-9.19-2.22-18.41,1.84-24.06,2.53-3.52,6.19-5.42,10.59-5.48h.23c10.79,0,24.7,11.62,29.18,24.39,2.13,6.06,1.67,12.78-1.24,18.45-2.58,5.02-6.81,8.7-11.62,10.1-1.46.42-2.95.64-4.44.64Z"/>
          <path class="cls-7" d="M117.67,332.03c9.86,0,22.65,10.83,26.82,22.72,1.9,5.41,1.5,11.42-1.1,16.47-2.27,4.41-5.95,7.63-10.1,8.84-1.23.36-2.49.54-3.74.54-8.86,0-17.97-9.17-22.15-22.3-2.69-8.45-2.12-16.82,1.49-21.84,2.08-2.89,4.97-4.39,8.6-4.44h.19M117.66,327.03c-.09,0-.18,0-.26,0-13.84.21-20.19,15.81-14.77,32.8,4.81,15.11,15.54,25.78,26.92,25.78,1.7,0,3.42-.24,5.14-.74,11.64-3.39,19.38-17.92,14.52-31.77-4.74-13.5-19.3-26.07-31.54-26.07h0Z"/>
        </g>
        <path class="cls-2" d="M118.42,345.96s12.96,0,14.04,12.71c.81,9.5-2.74,12.7-2.74,12.7"/>
      </g>
      <g>
        <g>
          <path class="cls-6" d="M382.46,383.11c-1.49,0-2.98-.22-4.44-.64-4.81-1.4-9.04-5.08-11.62-10.1-2.91-5.67-3.36-12.39-1.24-18.45,4.48-12.77,18.39-24.39,29.18-24.39h.23c4.4.07,8.06,1.96,10.59,5.48,4.06,5.65,4.77,14.87,1.84,24.06-4.58,14.38-14.44,24.04-24.53,24.04h0Z"/>
          <path class="cls-7" d="M394.34,332.03h.19c3.62.06,6.52,1.55,8.6,4.44,3.61,5.02,4.18,13.39,1.49,21.84-4.18,13.13-13.29,22.3-22.15,22.3-1.25,0-2.51-.18-3.74-.54-4.15-1.21-7.83-4.43-10.1-8.84-2.6-5.06-3-11.06-1.1-16.47,4.17-11.89,16.96-22.72,26.82-22.72M394.34,327.03c-12.24,0-26.8,12.56-31.54,26.07-4.86,13.85,2.88,28.38,14.52,31.77,1.72.5,3.44.74,5.14.74,11.38,0,22.1-10.67,26.92-25.78,5.41-16.98-.93-32.59-14.77-32.8-.09,0-.18,0-.26,0h0Z"/>
        </g>
        <path class="cls-2" d="M393.58,345.96s-12.96,0-14.04,12.71c-.81,9.5,2.74,12.7,2.74,12.7"/>
      </g>
    </g>
    <g>
      <path class="cls-6" d="M256,506.32c-34.47,0-52.1-6-53.65-9.12-.02-33.64-8.41-40.33-25.85-51.14-3.48-2.16-7.42-4.6-11.68-7.62-21.43-15.18-23.65-36.31-23.67-36.52l-12.38-145.79-1.06-1.23c-5.42-6.26-8.52-15.16-8.52-24.43,0-6.95,1.69-13.62,4.89-19.28l.77-1.35-11.21-127.35-9.06-49.87c5.93,2.87,14.88,8.41,20.92,12.15,14.35,8.88,22.72,13.91,27.82,13.91.59,0,1.16-.06,1.7-.19,5.9-1.28,8.93-9.58,14.21-25.37,2.16-6.46,5.63-16.81,8.05-20.21,3.35,2.5,9.84,11.28,13.88,16.76,9.59,12.99,14.87,19.77,20.66,19.77h0c.23,0,.47-.01.69-.03,4.97-.44,10.45-6.45,23.71-22.23,6.03-7.18,15.92-18.95,19.77-21.1,3.85,2.15,13.74,13.92,19.77,21.09,13.26,15.78,18.75,21.79,23.76,22.24.18.02.41.03.65.03,5.79,0,11.07-6.78,20.66-19.77,4.04-5.48,10.52-14.26,13.88-16.75,2.43,3.4,5.89,13.75,8.05,20.21,5.28,15.78,8.32,24.08,14.26,25.38.49.11,1.06.17,1.66.17,5.1,0,13.47-5.03,27.82-13.91,6.04-3.74,14.99-9.28,20.92-12.15l-9.06,49.87-11.21,127.35.77,1.35c3.2,5.66,4.89,12.33,4.89,19.28,0,9.27-3.11,18.18-8.52,24.43l-1.06,1.23-12.39,145.83c-.08.81-2.41,21.43-23.66,36.48-4.26,3.02-8.2,5.46-11.68,7.62-17.44,10.8-25.83,17.5-25.85,51.14-1.55,3.12-19.18,9.12-53.65,9.12Z"/>
      <path class="cls-7" d="M256,12.49c4.32,4.06,11.36,12.45,15.95,17.91,13.9,16.55,19.86,23.31,27.09,23.99.38.04.76.05,1.15.05,8.59,0,14.65-8.21,24.68-21.8,2.36-3.19,5.67-7.67,8.5-11.1,1.64,4.13,3.41,9.41,4.67,13.17,5.57,16.62,8.93,26.67,17.88,28.66.89.2,1.82.3,2.77.3,6.19,0,13.27-4.02,30.46-14.66,3.26-2.02,7.46-4.62,11.49-6.99l-7.14,39.34-.08.45-.04.46-11.05,125.57-.27,3.1,1.53,2.7c2.78,4.91,4.25,10.73,4.25,16.82,0,8.09-2.66,15.8-7.3,21.16l-2.13,2.46-.28,3.24-12.24,144.1c-.16,1.33-2.65,19.53-21.58,32.94-4.13,2.93-7.84,5.23-11.43,7.45-17.58,10.9-27.72,18.86-28.2,52.93-1.81.96-6.15,2.71-15.42,4.22-9.31,1.52-21.12,2.35-33.25,2.35s-23.94-.84-33.25-2.35c-9.27-1.51-13.61-3.27-15.42-4.22-.48-34.08-10.61-42.04-28.2-52.93-3.59-2.22-7.29-4.52-11.43-7.45-18.93-13.41-21.42-31.61-21.58-32.94l-12.24-144.1-.28-3.24-2.13-2.46c-4.64-5.36-7.3-13.07-7.3-21.16,0-6.09,1.47-11.91,4.25-16.82l1.53-2.7-.27-3.1-11.05-125.57-.04-.46-.08-.45-7.14-39.34c4.03,2.37,8.23,4.97,11.5,6.99,17.19,10.64,24.26,14.65,30.45,14.65.95,0,1.87-.1,2.76-.3,8.96-1.98,12.33-12.03,17.9-28.67,1.26-3.76,3.03-9.04,4.67-13.17,2.83,3.43,6.14,7.91,8.5,11.1,10.04,13.6,16.09,21.8,24.68,21.8.39,0,.78-.02,1.17-.06,7.22-.69,13.18-7.46,27.07-23.99,4.58-5.45,11.63-13.84,15.95-17.91M365.88,401.41h0s0,0,0,0h0M256,.89c-8.09.04-36.77,42.9-43.98,43.54-.07,0-.13,0-.2,0-7.28,0-26.94-37.07-35.1-37.07-.1,0-.21,0-.31.02-7.97,1.56-15.4,44.67-22.51,46.22-.18.04-.37.06-.59.06-8.18,0-44.48-27.93-54.03-27.94-.38,0-.72.05-1.02.14l10.4,57.28,11.05,125.57c-3.48,6.15-5.54,13.64-5.54,21.74,0,10.96,3.76,20.8,9.74,27.71l12.25,144.22h0s2.21,23.45,25.76,40.14c23.55,16.68,35.42,14.91,35.42,54.79,0,9.33,29.33,14,58.65,14s58.65-4.67,58.65-14c0-39.88,11.87-38.11,35.42-54.79,23.55-16.68,25.76-40.14,25.76-40.14l12.25-144.22c5.98-6.91,9.74-16.75,9.74-27.71,0-8.1-2.06-15.59-5.54-21.74l11.05-125.57,10.4-57.28c-.29-.09-.63-.14-1.02-.14-9.55,0-45.85,27.94-54.03,27.94-.22,0-.41-.02-.59-.06-7.11-1.55-14.54-44.67-22.51-46.22-.1-.01-.2-.02-.31-.02-8.16,0-27.82,37.07-35.1,37.07-.07,0-.13,0-.2,0-7.21-.64-35.89-43.5-43.98-43.54h0ZM333.32,6.91c-.17,0,.37.13,2.27.48,1.46.19,2.12.26,2.29.26.51,0-4.13-.74-4.55-.74h0ZM178.68,6.91c-.42,0-5.07.74-4.55.74.16,0,.83-.07,2.29-.26,1.9-.35,2.44-.48,2.27-.48h0Z"/>
    </g>
    <g>
      <g>
        <circle class="cls-1" cx="181.9" cy="281.35" r="60.34"/>
        <circle class="cls-4" cx="173.78" cy="282.43" r="11.91"/>
      </g>
      <g>
        <circle class="cls-1" cx="330.1" cy="281.35" r="60.34"/>
        <circle class="cls-4" cx="338.22" cy="282.43" r="11.91"/>
      </g>
    </g>
    <g>
      <path class="cls-6" d="M271.23,268.06c-1.07,3.76-1.68,13.18-.96,20.87.39,4.15,2.57,7.85,5.85,10.41,7.26,5.67,11.91,14.34,11.91,24.06,0,17.08-14.34,30.92-32.02,30.92s-32.02-13.84-32.02-30.92c0-11.58,6.6-21.68,16.36-26.98,5.45-4.83,30.88-28.36,30.88-28.36Z"/>
      <path class="cls-5" d="M288.02,323.4c0,17.08-14.34,30.92-32.02,30.92s-32.02-13.84-32.02-30.92c0,29.08,64.04,29.08,64.04,0Z"/>
      <path class="cls-2" d="M271.23,268.06c-1.07,3.76-1.68,13.18-.96,20.87.39,4.15,2.57,7.85,5.85,10.41,7.26,5.67,11.91,14.34,11.91,24.06,0,17.08-14.34,30.92-32.02,30.92s-32.02-13.84-32.02-30.92c0-11.58,6.6-21.68,16.36-26.98,1.28-4.04,1.97-13.01,1.79-18.7"/>
    </g>
    <g>
      <path class="cls-3" d="M170.77,420.78c59.34,20.75,116.16,20.75,170.46,0"/>
      <line class="cls-3" x1="174.19" y1="413.34" x2="167.89" y2="427.06"/>
      <line class="cls-3" x1="337.81" y1="413.34" x2="344.11" y2="427.06"/>
    </g>
  </g>
</svg>